<!DOCTYPE svg PUBLIC "-//W3C//DTD SVG 1.1//EN" "http://www.w3.org/Graphics/SVG/1.1/DTD/svg11.dtd">
<!-- Uploaded to: SVG Repo, www.svgrepo.com, Transformed by: SVG Repo Mixer Tools -->
<svg fill="#000000" width="800px" height="800px" viewBox="0 0 24 24" id="calendar-event-left" data-name="Flat Line" xmlns="http://www.w3.org/2000/svg" class="icon flat-line">
<g id="SVGRepo_bgCarrier" stroke-width="0"/>
<g id="SVGRepo_tracerCarrier" stroke-linecap="round" stroke-linejoin="round"/>
<g id="SVGRepo_iconCarrier">
<path id="secondary" d="M3,9V19H5v2H20a1,1,0,0,0,1-1V9Z" style="fill: #FF7517; stroke-width: 2;"/>
<path id="primary" d="M5,19v2L3,19ZM3,5V19l2,2H20a1,1,0,0,0,1-1V5a1,1,0,0,0-1-1H4A1,1,0,0,0,3,5ZM3,5V9H21V5a1,1,0,0,0-1-1H4A1,1,0,0,0,3,5ZM7,5V3m5,2V3m5,2V3" style="fill: none; stroke: #000000; stroke-linecap: round; stroke-linejoin: round; stroke-width: 2;"/>
</g>
</svg>