<!DOCTYPE svg PUBLIC "-//W3C//DTD SVG 1.1//EN" "http://www.w3.org/Graphics/SVG/1.1/DTD/svg11.dtd">
<!-- Uploaded to: SVG Repo, www.svgrepo.com, Transformed by: SVG Repo Mixer Tools -->
<svg width="800px" height="800px" viewBox="0 0 24 24" id="coupon" xmlns="http://www.w3.org/2000/svg" class="icon multi-color" fill="#000000">
<g id="SVGRepo_bgCarrier" stroke-width="0"/>
<g id="SVGRepo_tracerCarrier" stroke-linecap="round" stroke-linejoin="round"/>
<g id="SVGRepo_iconCarrier">
<title style="stroke-width: 2;">coupon</title>
<path id="tertiary-fill" d="M18,5h2a1,1,0,0,1,1,1V18a1,1,0,0,1-1,1H18a0,0,0,0,1,0,0V5A0,0,0,0,1,18,5Z" style="fill: #FF7517; stroke-width: 2;"/>
<path id="secondary-stroke" d="M13,17.17V19M13,5V6.67" style="fill: none; stroke: #FF7517; stroke-linecap: round; stroke-linejoin: round; stroke-width: 2; stroke-dasharray: 3.66667, 3.66667;"/>
<path id="primary-stroke" d="M21,6V18a1,1,0,0,1-1,1H4a1,1,0,0,1-1-1V15A3,3,0,0,0,3,9V6A1,1,0,0,1,4,5H20A1,1,0,0,1,21,6Zm-8,4.17V14" style="fill: none; stroke: #000000; stroke-linecap: round; stroke-linejoin: round; stroke-width: 2;"/>
</g>
</svg>